<svg id="Layer_2" data-name="Layer 2" xmlns="http://www.w3.org/2000/svg" viewBox="0 0 291.4 321.9"><defs><style>.cls-1{fill:#dcdde0;}.cls-2{fill:#ffa348;}.cls-3{fill:#fff;}.cls-4{fill:#414355;}.cls-5{fill:#858fa9;}.cls-6{fill:#2a9cc8;}.cls-7{fill:#fcc18b;}.cls-8{font-size:8px;font-family:Lato-Thin, Lato;font-weight:200;opacity:0.5;}.cls-9{letter-spacing:-0.01em;}.cls-10{letter-spacing:-0.01em;}.cls-11{letter-spacing:-0.03em;}.cls-12{letter-spacing:-0.01em;}</style></defs><title>5illus-cahier-multimedia-exp2</title><path class="cls-1" d="M523.83,188c-11.58-24.14-59.68-22.37-107.88.57S343,261.82,354.5,286s53,19,100.5-6.5C502,254.25,533.83,208.83,523.83,188Z" transform="translate(-337.96 -115.11)"/><path class="cls-1" d="M473.33,365.33c51.89,0,95.5-13.34,101.33-37.13a23.07,23.07,0,0,0,.67-5.53c0-27.25-45.3-48.31-107-48.67-55.65-.33-94.58,17.35-95.64,46.72,0,.54,0,1.07,0,1.61C373,349.58,417.55,365.33,473.33,365.33Z" transform="translate(-337.96 -115.11)"/><polygon class="cls-2" points="164.7 205.16 165.39 206.68 195.5 258.71 221.37 261.22 174.04 179.42 172.95 177.06 46.37 244.22 84.17 247.9 164.7 205.16"/><path class="cls-3" d="M473.31,318.05a30.8,30.8,0,0,0-1.72-2.93l.82-.57a30.79,30.79,0,0,1,1.78,3Z" transform="translate(-337.96 -115.11)"/><path class="cls-3" d="M475.32,316.87c-.24-.41-1.72-2.72-2-3.08l.82-.58c.27.38,1.77,2.72,2,3.17Z" transform="translate(-337.96 -115.11)"/><path class="cls-3" d="M477.3,315.76c-.09-.29-1.15-2.49-1.63-3.31l.86-.51a36.93,36.93,0,0,1,1.73,3.53Z" transform="translate(-337.96 -115.11)"/><path class="cls-3" d="M479.35,314.82c-.23-.54-.72-1.41-1.16-2.19-.24-.43-.47-.84-.63-1.15l.88-.46c.16.3.38.7.62,1.12.45.8,1,1.7,1.21,2.29Z" transform="translate(-337.96 -115.11)"/><path class="cls-3" d="M403.32,354.87c-.24-.41-1.72-2.72-2-3.08l.82-.58c.27.38,1.77,2.72,2,3.17Z" transform="translate(-337.96 -115.11)"/><path class="cls-3" d="M401.32,355.87c-.24-.41-1.72-2.72-2-3.08l.82-.58c.27.38,1.77,2.72,2,3.17Z" transform="translate(-337.96 -115.11)"/><path class="cls-3" d="M405.3,353.76c-.09-.29-1.15-2.49-1.63-3.31l.86-.51a36.93,36.93,0,0,1,1.73,3.53Z" transform="translate(-337.96 -115.11)"/><path class="cls-3" d="M407.35,352.82c-.23-.54-.72-1.41-1.16-2.19-.24-.43-.47-.84-.63-1.15l.88-.46c.16.3.38.7.62,1.12.45.8,1,1.7,1.21,2.29Z" transform="translate(-337.96 -115.11)"/><path class="cls-3" d="M483.31,312.05a30.8,30.8,0,0,0-1.72-2.93l.82-.57a30.79,30.79,0,0,1,1.78,3Z" transform="translate(-337.96 -115.11)"/><path class="cls-3" d="M485.32,310.87c-.24-.41-1.72-2.72-2-3.08l.82-.58c.27.38,1.77,2.72,2,3.17Z" transform="translate(-337.96 -115.11)"/><path class="cls-3" d="M487.4,309.73a36.5,36.5,0,0,0-1.82-3.2l.83-.56a35.7,35.7,0,0,1,1.94,3.42Z" transform="translate(-337.96 -115.11)"/><path class="cls-3" d="M489.35,308.82c-.23-.54-.72-1.41-1.16-2.19-.24-.43-.47-.84-.63-1.15l.88-.46c.16.3.39.7.63,1.12.44.8.95,1.7,1.2,2.29Z" transform="translate(-337.96 -115.11)"/><path class="cls-3" d="M493.31,307.05a30.8,30.8,0,0,0-1.72-2.93l.82-.57a30.79,30.79,0,0,1,1.78,3Z" transform="translate(-337.96 -115.11)"/><path class="cls-3" d="M495.32,305.87c-.24-.41-1.72-2.72-2-3.08l.82-.58c.27.38,1.77,2.72,2,3.17Z" transform="translate(-337.96 -115.11)"/><path class="cls-3" d="M497.4,304.73a36.5,36.5,0,0,0-1.82-3.2l.83-.56a35.7,35.7,0,0,1,1.94,3.42Z" transform="translate(-337.96 -115.11)"/><path class="cls-3" d="M499.35,303.82c-.23-.54-.72-1.41-1.16-2.19-.24-.43-.47-.84-.63-1.15l.88-.46c.16.3.39.7.63,1.12.44.8.95,1.7,1.2,2.29Z" transform="translate(-337.96 -115.11)"/><path class="cls-3" d="M503.31,302.05a30.8,30.8,0,0,0-1.72-2.93l.82-.57a30.79,30.79,0,0,1,1.78,3Z" transform="translate(-337.96 -115.11)"/><path class="cls-3" d="M505.32,300.87c-.24-.41-1.72-2.72-2-3.08l.82-.58c.27.38,1.77,2.72,2,3.17Z" transform="translate(-337.96 -115.11)"/><path class="cls-3" d="M507.4,299.73a36.5,36.5,0,0,0-1.82-3.2l.83-.56a35.7,35.7,0,0,1,1.94,3.42Z" transform="translate(-337.96 -115.11)"/><path class="cls-3" d="M509.35,298.82c-.23-.54-.72-1.41-1.16-2.19-.24-.43-.47-.84-.63-1.15l.88-.46c.16.3.39.7.63,1.12.44.8.95,1.7,1.2,2.29Z" transform="translate(-337.96 -115.11)"/><path class="cls-3" d="M483.07,316.76c-.53-.87-2.53-4.58-3.39-6.28l.89-.45c.9,1.77,2.88,5.43,3.36,6.21Z" transform="translate(-337.96 -115.11)"/><path class="cls-3" d="M473.07,321.76c-.53-.87-2.53-4.58-3.39-6.28l.89-.45c.9,1.77,2.88,5.43,3.36,6.21Z" transform="translate(-337.96 -115.11)"/><path class="cls-3" d="M503.07,305.76c-.53-.87-2.53-4.58-3.39-6.28l.89-.45c.9,1.77,2.88,5.43,3.36,6.21Z" transform="translate(-337.96 -115.11)"/><path class="cls-3" d="M493.07,310.76c-.53-.87-2.53-4.58-3.39-6.28l.89-.45c.9,1.77,2.88,5.43,3.36,6.21Z" transform="translate(-337.96 -115.11)"/><path class="cls-3" d="M469.5,319.8l-.62-1.13-1-1.87.89-.47,1,1.86.62,1.13Z" transform="translate(-337.96 -115.11)"/><path class="cls-4" d="M551.88,203.33c-.36,3.68-2.67,6.59-4.87,9.4-2.35,3-4.28,5.71-7.46,7.92-2.31,1.6-9.33,4.7-7.75-1.14a6.41,6.41,0,0,1,4.16-4.15c2.92-1,3.19,2.69,3.27,4.64.3,6.83-7,14.59-13.65,15.26-3.14.31-1.74-4,.75-4.13,2.92-.19,2.12,5.46,1.85,6.92a19.33,19.33,0,0,1-5.6,10.19,10,10,0,0,1-5.43,2.92c-2.36.26-3.89-1.35-2.72-3.57.66-1.26,1.65-1.38,2.9-1.42,1.84-.06,2.22,2.08,2.31,3.4A20.18,20.18,0,0,1,519,256c-.87,3.31-3.24,6.17-5,9a9.52,9.52,0,0,1-4.76,3.76,6,6,0,0,1-2.24.49c-1.34,0-1.41-.74-1.78-1.85-.75-2.2-.41-4.73,1.59-6.1,2.54-1.74,4.6,1.39,4.94,3.44.28,1.71.48,3.43.66,5.15.24,2.23-1.4,4.22-2.69,5.85-2,2.45-2.33,6.09-5.81,7.13-5.27,1.59-2.46-9.4,1-3.54,1.21,2,1.41,4.83,1.56,7.12.27,4.34-.06,8.72-2.35,12.52a13.86,13.86,0,0,1-4.41,4.69,3.75,3.75,0,0,1-4.15,0c-1.28-1-.5-4.74.52-5.74,2.52-2.49,3.21,1.56,3.6,3.11.59,2.32-.09,5.06-.22,7.4a24.42,24.42,0,0,1-1.76,7.37c-.82,2.14-1.75,4.57-3.47,6.14a6.54,6.54,0,0,1-2.32,1.32c-2.27.79-3.38-1.62-3.1-3.42.23-1.5,2.14-4.29,3.9-1.8a9.61,9.61,0,0,1,1,2.33,24.71,24.71,0,0,1,1.47,7.43,13.44,13.44,0,0,1-1.82,6.51c-2.07,4.11-4.18-.84-4.44-1.78-.49-1.21-.18-1.51.92-.89a14.17,14.17,0,0,1,.44,1.67,11.11,11.11,0,0,1-1.79,8.48c-2,3.29-5.61,5.74-7,9.43-.22.59.71.84.92.26,1.1-3,4-5.45,5.94-7.94a13.17,13.17,0,0,0,3.05-8.69c-.05-1.35-.33-4.81-1.9-5.36-1.75-.62-1.72,1.32-1.65,2.53.22,3.74,4.85,6.29,6.61,2.08A15.62,15.62,0,0,0,496,326a24,24,0,0,0-2.23-8c-1.73-3.77-5.83-1-5.94,2.26-.16,4.61,4.26,4.54,7.05,2.29,2-1.58,2.75-4.31,3.69-6.54,1.42-3.39,1.54-6.67,2-10.23.16-1.24.21-12-3.57-9.75a5.38,5.38,0,0,0-2.88,4.71c-.11,2.05.21,3.75,2.39,4.36,4.57,1.27,8.45-5.12,9.78-8.49a22.12,22.12,0,0,0,1.16-8.43,23,23,0,0,0-1.6-9.41,3.31,3.31,0,0,0-4.33-2c-1.92.66-2,3.14-1.65,4.73a3.75,3.75,0,0,0,3.67,2.82c2.14.15,4.24-1.95,5.31-3.54.94-1.39,1.51-3.11,2.55-4.41a18.13,18.13,0,0,0,2.07-3.14c1.29-2.58.55-5.6.11-8.31-.38-2.37-1.19-4.35-3.47-5.48-2.08-1-4.46.08-5.78,1.74-1.53,1.92-1.39,4.4-.74,6.62.45,1.51,1.05,3.3,3,3,6.11-.9,9-5.56,11.79-10.64a20.66,20.66,0,0,0,2.57-8.13c.25-2.52.31-5.31-1.83-7-1.35-1.08-3.76-.63-5,.29a4.7,4.7,0,0,0-1.61,5.08c1.56,5.42,8.79.74,11-1.33,4.2-4,6.8-10.28,6-16.07-.63-4.66-5.91-3.77-7.22,0-1.81,5.14,5,4,7.55,2.68A19.75,19.75,0,0,0,540,221.58c.31-1.73.42-5-.6-6.5s-3.53-1.18-5-.56c-2.78,1.17-7,7.36-3.08,9.67,4.48,2.61,10.82-2.7,13.59-5.84a79.25,79.25,0,0,0,5.14-7,13.4,13.4,0,0,0,2.75-8,.46.46,0,0,0-.91,0Z" transform="translate(-337.96 -115.11)"/><polygon class="cls-4" points="215.04 80.39 211.54 88.14 215.91 90.02 219.69 83.26 215.04 80.39"/><path class="cls-5" d="M560.93,186.69a32.57,32.57,0,0,0,8.21,2.45L578.75,171l10-21L571,142.75l-15.75,32.5-2.7,6.88a15.55,15.55,0,0,0,2.82,2.08C557.13,185.19,559.1,185.88,560.93,186.69Z" transform="translate(-337.96 -115.11)"/><path class="cls-5" d="M551.59,184.57,547.5,195l15.06,6.55,4.87-9.18a65.76,65.76,0,0,1-8-3.06A32.5,32.5,0,0,1,551.59,184.57Z" transform="translate(-337.96 -115.11)"/><path class="cls-4" d="M560.93,186.69c-1.83-.81-3.8-1.5-5.56-2.48a15.15,15.15,0,0,1-2.82-2.09l-1,2.45a32.69,32.69,0,0,0,7.81,4.74,66.39,66.39,0,0,0,8,3.06l1.71-3.23A32.57,32.57,0,0,1,560.93,186.69Z" transform="translate(-337.96 -115.11)"/><path class="cls-4" d="M577.81,115.44c-8.46.91-12.64,8.62-13.51,14.86-1.33,9.47,4.19,16.73,13.17,19.53,3.64,1.14,7.67,2.5,11.51,1.8a14.76,14.76,0,0,0,10.15-6.69c4.18-6.76,8.1-19.38-.29-24.81-3.88-2.52-7.63-4.47-12.15-4.82A37.7,37.7,0,0,0,577.81,115.44Z" transform="translate(-337.96 -115.11)"/><path class="cls-6" d="M603.62,132.67c0-.33.08-.67.11-1a44.82,44.82,0,0,0-4.7-1,43.3,43.3,0,0,0-.4-5.45,33.72,33.72,0,0,1,4.66,1,12,12,0,0,0-.39-1.15,35.55,35.55,0,0,0-4.43-.92,36.9,36.9,0,0,0-1-4.49l.9.16-1.06-.66c-.4-.24-.79-.48-1.19-.7l-.12-.07a.14.14,0,0,1,0,.06,51.55,51.55,0,0,0-5.38-.35c-.24-.76-.5-1.51-.79-2.26l-1.16-.25c.33.82.62,1.65.89,2.48l-1.89-.07c-1,0-2-.1-3.06-.09a23.4,23.4,0,0,0-.88-2.77l-1.08,0a20.24,20.24,0,0,1,.93,2.82h-.27a30.9,30.9,0,0,0-4.37.55c-.36-.92-.8-2-1.31-3-.35,0-.69.1-1,.17.52,1,1,2.08,1.35,3.07-1,.23-2,.51-3.18.9-.37.12-.78.29-1.21.48a26.7,26.7,0,0,0-1-3c-.3.17-.58.35-.86.54.37,1,.67,1.94.93,2.87-1.22.6-2.57,1.37-3.91,2.18-.11-.64-.22-1.31-.36-2-.29.35-.56.72-.81,1.09.09.51.17,1,.24,1.48l-1.72,1.1c-.24.5-.44,1-.63,1.52l-.06.13c.79-.52,1.66-1.09,2.57-1.66,0,.18,0,.36.07.53l0,.33c.13,1.09.26,2.19.37,3.3l-2.06.86c-.7.3-1.39.61-2.07.94-.06.4-.09.79-.12,1.18.85-.44,1.71-.83,2.58-1.2l1.78-.74c.16,1.62.28,3.24.32,4.87,0,.17,0,.36,0,.54-.58.21-1.17.42-1.74.67l-.54.24c-.64.27-1.37.58-2.08,1,.08.34.17.67.27,1a22.65,22.65,0,0,1,2.2-1l.56-.24c.43-.2.89-.36,1.34-.52,0,1.5,0,3.07-.11,4.72a21.74,21.74,0,0,0-2.42.75c.17.29.35.58.54.86.58-.22,1.2-.4,1.83-.57-.05.85-.12,1.72-.19,2.61q.44.47.9.9c0-.19.06-.37.07-.56.1-1.11.17-2.17.23-3.2,1.49-.38,3-.65,4.54-.9,0,.74-.08,1.49-.14,2.22,0,.51-.13,1-.2,1.49-1.08.2-2.15.44-3.2.73l-1.15.35c.29.27.59.52.9.77.17,0,.34-.11.52-.15.9-.26,1.84-.47,2.78-.65-.16.89-.36,1.75-.58,2.61.3.17.6.33.91.48.27-1.06.53-2.15.72-3.27,1.56-.26,3.13-.47,4.7-.62-.22,1.27-.49,2.53-.78,3.79-1.37.1-2.85.2-4.28.27a20.75,20.75,0,0,0,2.16.88l1.88-.13c0,.23-.11.46-.17.7l1,.29c.09-.36.18-.71.26-1.07,1.53-.13,2.86-.27,3.7-.42l.78-.1c-.15.9-.33,1.8-.56,2.67.33.06.66.12,1,.16a29.45,29.45,0,0,0,.6-2.94c1.51-.12,3.07-.1,4.6-.07,0,0,0,.05,0,.08-.17.9-.38,1.89-.62,2.91.37-.07.73-.16,1.09-.26.2-.86.37-1.69.52-2.46,0-.08,0-.17,0-.25l1,0c1.31,0,2.52.06,3.68.12l0,.2.26-.19a12.68,12.68,0,0,0,1.06-.88l.05,0h0c.31-1.17.59-2.36.85-3.56.59.13,1.18.26,1.76.42.17-.29.35-.58.52-.89-.69-.19-1.38-.36-2.07-.5.36-1.78.66-3.58.89-5.38a24.65,24.65,0,0,1,3.51.8l.33-.94a26.69,26.69,0,0,0-3.73-.85,53.12,53.12,0,0,0,.32-5.34A42.85,42.85,0,0,1,603.62,132.67Zm-5.6-2.22c-.94-.13-1.88-.24-2.8-.3s-1.75-.06-2.64-.05a45,45,0,0,0-.46-5.39,44,44,0,0,1,5.47.32A40.83,40.83,0,0,1,598,130.45Zm-6.39,1.31c0,1.71-.09,3.4-.23,5.07-1.79.15-3.51.36-5.14.62.07-1.83.08-3.73,0-5.68a46.57,46.57,0,0,1,5.31-.64C591.61,131.34,591.63,131.55,591.63,131.76Zm-.93,11c-1.63,0-3.25.16-4.86.31.17-1.47.29-3,.37-4.58,1.62-.26,3.33-.48,5.1-.63C591.15,139.5,590.94,141.14,590.7,142.74Zm-15.58-13c-.06-.81-.14-1.65-.23-2.49l1.42-.41c1-.25,2.08-.52,3.36-.79.12,1.07.21,2.14.28,3.19s.12,1.88.16,2.78l-.93.22c-1,.24-2,.46-2.95.68l-.91.21C575.28,132.06,575.21,130.93,575.12,129.78Zm16.47.36a46.39,46.39,0,0,0-5.32.62l0-1.11c-.07-1.59-.19-3.1-.35-4.57,1.66-.19,3.42-.32,5.23-.35A47.12,47.12,0,0,1,591.59,130.14Zm-6.34,7.47c-1.47.25-2.84.51-4.1.78.07-1.75.07-3.58,0-5.55,1.37-.32,2.76-.63,4.16-.9C585.34,133.9,585.33,135.79,585.25,137.61Zm0-7.92c0,.42,0,.83,0,1.24-1.4.27-2.8.57-4.18.89,0-.84-.08-1.71-.15-2.61-.08-1.09-.17-2.2-.3-3.32,1.3-.25,2.73-.49,4.24-.69C585.05,126.64,585.17,128.12,585.24,129.69Zm-9.89,4.5,1.1-.25c1-.22,2-.44,3-.69l.73-.17c.07,2,.06,3.78,0,5.52-1.55.33-3.14.58-4.68.83l-.13,0C575.4,137.74,575.4,136,575.35,134.19Zm5.53,8c.09-.9.16-1.82.22-2.76,1.26-.26,2.63-.53,4.1-.79-.08,1.56-.2,3.06-.37,4.51l-.2,0-2.81.24-1.12.09C580.76,143.05,580.83,142.62,580.88,142.18Zm15.46-22.69a35.44,35.44,0,0,1,1.1,4.52,46.2,46.2,0,0,0-5.48-.3,41.11,41.11,0,0,0-1-4.61A49.09,49.09,0,0,1,596.34,119.49Zm-8.73-.5c.75,0,1.5.06,2.25.08a42.1,42.1,0,0,1,1.09,4.66c-1.79,0-3.53.18-5.18.36-.19-1.44-.42-2.83-.71-4.18-.07-.33-.14-.67-.22-1C585.77,118.9,586.7,118.94,587.61,119Zm-4.25-.06h.46l.27,1.2c.28,1.32.5,2.68.68,4.09-1.51.2-2.94.44-4.24.69a28.36,28.36,0,0,0-1.25-5.46A30.12,30.12,0,0,1,583.36,118.93Zm-8.28,1.63a33.14,33.14,0,0,1,3.21-.91,27.09,27.09,0,0,1,1.26,5.45c-1.33.27-2.51.55-3.49.81-.44.12-.85.25-1.28.38a39.23,39.23,0,0,0-1-5.23A11.71,11.71,0,0,1,575.08,120.56Zm-6,4.53,0-.33c0-.33-.09-.66-.13-1,1.36-.84,2.76-1.65,4-2.27a38.34,38.34,0,0,1,.91,5.07c-1.55.49-3,1-4.4,1.56C569.29,127.11,569.17,126.09,569.06,125.09Zm.8,9.3c0-1.75-.18-3.5-.35-5.23,1.38-.55,2.85-1.09,4.41-1.58.08.77.15,1.53.21,2.27.09,1.21.15,2.39.2,3.54-1.49.35-3,.74-4.47,1.22Zm-.08,6.11c.08-1.69.11-3.31.1-4.85,1.46-.49,3-.88,4.47-1.23,0,1.77,0,3.51,0,5.19C572.84,139.85,571.32,140.13,569.78,140.5Zm5.18,3.66c.06-.4.12-.8.16-1.21.07-.82.12-1.65.16-2.48l.34-.05c1.47-.24,3-.48,4.46-.79-.05.83-.11,1.64-.2,2.44,0,.51-.13,1-.21,1.51C578.11,143.73,576.53,143.91,575,144.16Zm8.12,3.76c-.76.14-1.93.26-3.29.38.28-1.25.55-2.51.76-3.79l1.34-.11c.93-.07,1.87-.16,2.81-.25,0,.32-.08.64-.13,1s-.12.87-.18,1.32-.13.9-.19,1.35C583.82,147.82,583.45,147.86,583.08,147.92Zm2.14-.23c.06-.38.11-.75.16-1.12s.12-.89.19-1.32l.15-1.19c1.6-.14,3.21-.27,4.82-.32-.22,1.32-.45,2.62-.69,3.89C588.32,147.6,586.76,147.58,585.22,147.69Zm6.47,0-.82,0c.24-1.28.47-2.59.68-3.92a27.53,27.53,0,0,1,5,.38c-.27,1.24-.57,2.47-.89,3.69C594.4,147.73,593.09,147.68,591.69,147.67Zm5-4.54a28.94,28.94,0,0,0-5-.4c.25-1.63.46-3.28.61-5,.64,0,1.28-.08,1.93-.1a22.86,22.86,0,0,1,3.35.16C597.38,139.6,597.08,141.38,596.72,143.13Zm1-6.3a23.47,23.47,0,0,0-3.49-.17c-.61,0-1.21.06-1.81.1.13-1.65.21-3.31.22-5,0-.22,0-.44,0-.66.85,0,1.7,0,2.54,0s1.91.18,2.87.32A48.34,48.34,0,0,1,597.71,136.83Z" transform="translate(-337.96 -115.11)"/><path class="cls-7" d="M408.75,337.25c2.63,4.68,8.64,7.74,12.5,12.08C429,358,436,367.2,445.49,372c11.46,5.77,23.55,7,37.93,6.86,13.58-.16,11.58-19.62,6.27-27.65-4.52-6.83-11.36-8-18.19-13.35a13.5,13.5,0,0,1-3.92-4.25c-1.36-3-1.16-5.91,0-11.11,1.46-6.76.3-17.63-5.54-22.3-9.17-7.34-26.33-5.84-34.67-1.5C410.6,307.37,398.92,319.75,408.75,337.25Z" transform="translate(-337.96 -115.11)"/><path class="cls-5" d="M408.33,314c-9.65,13.37-9.25,26.55-.16,36,4.16,4.33,11.19,6.35,14.16,12,4,7.65-8.4,12-5.33,16.83,4.33,6.84,16.48,13.49,19.17-3.33,1.53-9.6.74-16.24-4-21-3.49-3.5-10-5.58-14.84-9.17-9-6.66-13.34-13.74-9.66-26.16a72.24,72.24,0,0,1,3.16-8.34Z" transform="translate(-337.96 -115.11)"/><path class="cls-6" d="M401.81,257.87c6.25-3,11.75-5.85,18-8.81,1.75-.83,1-3.18-.75-2.36-6.25,3-11.87,6-18.12,8.92-1.75.83-.86,3.37.88,2.55Z" transform="translate(-337.96 -115.11)"/><path class="cls-6" d="M403.81,262.87c6.25-2.95,11.75-5.85,18-8.81,1.75-.83,1-3.18-.75-2.36-6.25,3-11.87,6-18.12,8.92C401.19,261.45,403.81,262.87,403.81,262.87Z" transform="translate(-337.96 -115.11)"/><path class="cls-6" d="M405.81,267.87c6.25-2.95,11.75-5.85,18-8.81,1.75-.83,1-3.18-.75-2.36-6.25,3-11.87,6-18.12,8.92C403.19,266.45,405.81,267.87,405.81,267.87Z" transform="translate(-337.96 -115.11)"/><path class="cls-4" d="M405.5,262.54c.79-.62.14-1.49-.5-2a2.07,2.07,0,0,0-1.42-.5,9.39,9.39,0,0,0-3.58,1.71,1.91,1.91,0,0,0-.33,1.83c.25.71,1.15.83,1.66.75A8.8,8.8,0,0,0,405.5,262.54Z" transform="translate(-337.96 -115.11)"/><path class="cls-4" d="M401.7,260a2.77,2.77,0,0,0,1.23-1.94,5.35,5.35,0,0,0-.44-2.37,2.13,2.13,0,0,0-3-1.08,2.89,2.89,0,0,0-1.64,3.67,4,4,0,0,0,1.29,1.77A2.77,2.77,0,0,0,401.7,260Z" transform="translate(-337.96 -115.11)"/><path class="cls-4" d="M405.91,265.09c-1.28.07-2.92.43-3.38,1.82s1.77,1.79,2.6,1.93a3.5,3.5,0,0,0,2.21-.22,2.44,2.44,0,0,0,1.18-1.76C408.92,265.29,407.06,265.06,405.91,265.09Z" transform="translate(-337.96 -115.11)"/><path class="cls-4" d="M422.52,245.32c-1-1.06-2.73-.62-3.65.3a2.73,2.73,0,0,0-.39,3.41c.82,1.46,3.09.68,4-.17A2.45,2.45,0,0,0,422.52,245.32Z" transform="translate(-337.96 -115.11)"/><path class="cls-4" d="M425.69,252.1c.24-1.3-.41-2.07-2-2.1a3.12,3.12,0,0,0-3.26,2.08,1.83,1.83,0,0,0,1.88,2.53,4,4,0,0,0,2.28-.73A2.38,2.38,0,0,0,425.69,252.1Z" transform="translate(-337.96 -115.11)"/><path class="cls-4" d="M427.81,256.47c-.36-1.18-1.41-1.49-2.87-1.1s-2,1.87-2.29,3.34c-.33,1.62,1.31,2.11,2.57,1.51S428.31,258.1,427.81,256.47Z" transform="translate(-337.96 -115.11)"/><path class="cls-5" d="M423.88,265.62l-6.94-19s-.56-1.75-1.44-2.18c-1.17-.59-2.81.43-2.81.43l-8.06,3.63s-2.55,1.32-3,2.12a2,2,0,0,0,.06,2l10.87,19,0,.23c4.59-1.84,7.78-2.81,11.54-5.48Z" transform="translate(-337.96 -115.11)"/><path class="cls-2" d="M450,326.33l-26.67-62.16c-4,2-7.4,3.49-12,5.33l28,61.33Z" transform="translate(-337.96 -115.11)"/><ellipse class="cls-4" cx="109.35" cy="219.14" rx="10.69" ry="10.38"/><path class="cls-7" d="M582.5,312.75c5.78-7.84,8.75-14,5.25-17.75-3.32-3.55-10.57-2.9-17.79-.05C549.62,303,568.5,331.75,582.5,312.75Z" transform="translate(-337.96 -115.11)"/><path class="cls-4" d="M559.25,310.5c-5.25,12-9.25,22.25-13,28-2.24,3.44-9.17,18-10.75,21.75,9.69-.76,26.54-3.91,31.5-12.5,3.82-6.61,5.85-12.66,8.75-19.75,1.33-3.24,4.57-10.69,5.75-14-10.51,4.28-15.75.83-17.33-1.33S559.25,310.5,559.25,310.5Z" transform="translate(-337.96 -115.11)"/><polygon class="cls-6" points="277.7 177.56 249.66 189.64 221.54 198.64 222.45 160.77 274.87 138.56 277.7 177.56"/><polygon class="cls-4" points="221.79 198.64 203.04 194.39 205.54 156.89 223.41 160.31 221.79 198.64"/><path class="cls-4" d="M617,271.62c-5.33-1.33-14.8-3.31-19-3.62-10-.75-16.08,9.68-17,16.37-1.37,10,3.38,14.67,13.88,17,3.37.75,13.56,3.13,19.12,3.13,10,0,13.83-7.05,15-15.25C630.5,278.75,627.5,274.25,617,271.62Z" transform="translate(-337.96 -115.11)"/><path class="cls-5" d="M619.59,276.31c3.46,8.49.2,18.19-5.15,25.61a10.66,10.66,0,0,0,6.56-1.67c4-2.82,5.65-9.18,6-13.38C627.61,279.51,623.8,276.44,619.59,276.31Z" transform="translate(-337.96 -115.11)"/><path class="cls-1" d="M619.59,276.31A10.44,10.44,0,0,0,613,278.5c-5.63,4.37-8.88,15.81-3.12,21.5a7.09,7.09,0,0,0,4.57,1.92C622.5,294.5,624.75,283.12,619.59,276.31Z" transform="translate(-337.96 -115.11)"/><path class="cls-3" d="M616.42,279.46c.52.1,1.22,2.36,1.27,2.52a11.32,11.32,0,0,1,.07,5.24c-.6,2.7-1.93,5.08-2.91,7.65-.17.45.53.87.84.48a17.86,17.86,0,0,0,3.8-10.41c0-1.57-.69-6.52-3.07-6.07a.31.31,0,0,0,0,.59Z" transform="translate(-337.96 -115.11)"/><polygon class="cls-5" points="259.54 134.02 205.54 156.89 223.53 160.5 274.91 138.56 259.54 134.02"/><polygon class="cls-3" points="255.6 146.7 239.04 153.83 241.2 143.06 249.54 139.97 255.6 146.7"/><polygon class="cls-4" points="241.41 143.02 230.12 139.72 223.37 149.39 238.95 153.81 241.41 143.02"/><polygon class="cls-5" points="244.29 135.27 230.22 139.77 241.35 143.39 249.87 140.18 244.29 135.27"/><path class="cls-4" d="M560,271.91c-.44.37-.72,1-.12,1.5,1.12.65,3.54.24,3.68-1.1C563.69,271.19,561,270.91,560,271.91Z" transform="translate(-337.96 -115.11)"/><path class="cls-7" d="M531.58,306.92c2.43-4.29,7.17-13.84,13.67-14.75,3.51-.5.7,5.47-.67,8.83,1.4-1.8,4.67-5.08,6.59-3.67s.58,4.17-.59,6.84c-.35.81-1.88,4.27-2.16,5.16,4.58-3.5,7.08-5.06,8.33-2.75s-1.08,6.17-4.83,11c-2.62,3.38-7.1,12-9.67,15.59-2.07,2.87-2.56,2.56-6.78,2.08-5.7-.63-9.74-.65-10.47-4-.34-1.57-.68-5.46.17-7.83C526.92,318.5,528.75,311.92,531.58,306.92Z" transform="translate(-337.96 -115.11)"/><path class="cls-4" d="M525.17,322.42c-6.67,13.75-10.54,23.95-15.79,34.7-1.8,3.69-5.43,8.84-7,12.63,9.69-.76,22.7,2.57,27.66-6,3.82-6.61,5.89-13.14,8.79-20.23,1.33-3.24,3.32-7.86,4.5-11.17-10.5,4.29-14.58.5-16.16-1.66S525.17,322.42,525.17,322.42Z" transform="translate(-337.96 -115.11)"/><path class="cls-4" d="M525.28,323.15a22,22,0,0,0,1.76-4.83c.66-2.18,1.47-4.34,2.29-6.47,1.78-4.54,4.53-8.64,7.2-12.68a15.53,15.53,0,0,1,6.89-5.81c.54-.21,3-1.31,2.72.58a10.58,10.58,0,0,1-.59,2c-1.62,4.77-4.19,8.73-6.5,13.16l1.48.62c.56-2.57,2.61-5.33,4-7.54a13.6,13.6,0,0,1,2.7-3.42c1.36-1.08,4.48-2.85,4.68.47.15,2.71-1.63,5.13-3,7.33-.68,1.12-1.29,2.28-2,3.37a17.94,17.94,0,0,1-2.23,3.29l1.2.92c1.46-2.21,3.41-3.89,5-5.95a7.76,7.76,0,0,1,3.7-2.3c2.34-.79,2.54,2,2.12,3.51-.55,2-2.45,4.19-3.64,5.87-.8,1.12-1.69,2.07-2.4,3.23-2.82,4.64-5.81,9.25-8.26,14.09a.33.33,0,0,0,.56.33c2-3,3.81-6.14,5.68-9.24,2-3.29,4.15-6.26,6.29-9.43,1.11-1.65,3.09-3.93,3-6.08,0-1.06-.37-3.07-1.63-3.42-1.94-.53-4.24.73-5.7,1.83a29.05,29.05,0,0,0-6.1,6.79c-.5.76.58,1.48,1.2.93,1.18-1.06,1.85-3,2.67-4.38,1-1.75,2-3.63,2.9-5.45s2.49-5.55.84-7.52c-4.19-5-11.71,10.05-13.15,12.15-.59.86.82,1.68,1.4.82a48.68,48.68,0,0,0,7.12-15c.36-1.39.28-2.7-.94-3.55s-4.21,1-5.18,1.64c-4.63,2.87-7.48,8.75-10.12,13.32C528.28,311.57,527,317.39,525,323c-.07.2.23.31.33.14Z" transform="translate(-337.96 -115.11)"/><path class="cls-6" d="M509.65,162.64A81.28,81.28,0,0,0,496.5,150.5c-13.22-9.72-30.58-16.25-48.58-18.23l-.18-.09c-1.08-.12-2.16-.21-3.25-.29l.15.06c-3-.22-6.54-.42-9.47-.39-2.1,0-4.22.08-6.33.22-2.32.15-5,.47-7.41.78l0,0c-.49.06-1,.14-1.45.22a0,0,0,0,1,0,0,119.72,119.72,0,0,0-20.34,5h0L399,138h0l-.38.13a109.87,109.87,0,0,0-13.85,6.13c-.46.24-.91.5-1.36.75-2.05,1.13-4.22,2.51-6.22,3.83a.14.14,0,0,0,0-.06l-.49.32-.08.08s0,0,0,0l-.26.23h0A87.53,87.53,0,0,0,363,160.4l-1,1.06a84,84,0,0,0-14,19.81c-.46.92-.91,1.84-1.35,2.79-7.31,15.76-10.65,35.52-7.33,59.69,2.18,15.87,10.5,38.75,18.75,47.5a86.08,86.08,0,0,1,4-33.45c.12-.39.25-.78.38-1.17a91.62,91.62,0,0,1,6.6-14.88,109.84,109.84,0,0,1,13.38-19l0,0L383,222v0A151,151,0,0,1,407.5,200.5l0,0,.58-.41,0,0c3.1-2.18,6.59-4.43,10-6.51,6.86-4.2,10.44-6.45,15.79-8.79l0,0c.19-.08.41-.2.63-.31h0c.8-.34,2-.74,2.89-1.1,0-.06,0-.11,0-.16,1.18-.5,3.7-1.6,4.32-1.83v0h0A161.74,161.74,0,0,1,463.29,175l.75-.16,0,0c1.76-.35,3.65-.64,5.14-.83l4.84-.58a76.16,76.16,0,0,1,22.25.71l-.05-.07,1,.21-.07-.09a58.53,58.53,0,0,1,16.1,6,39.07,39.07,0,0,1,11.23,9.36C523.1,182.85,518.25,172.52,509.65,162.64Z" transform="translate(-337.96 -115.11)"/><path class="cls-4" d="M512,173.3c-1.19-3.41-1.54-7.1-2.33-10.66A81.28,81.28,0,0,0,496.5,150.5c-13.22-9.72-30.58-16.25-48.58-18.23l-.18-.09c-1.08-.12-2.16-.21-3.25-.29l.15.06c-3-.22-6.54-.42-9.47-.39s-3.92.19-6.33.22-5.23.49-7.66.81h0a114.64,114.64,0,0,0-21.54,5.16v0L399,138h0l-.37.13-.11.13c-2.05,3.16-1.81,10.68-4.26,13.51-4.16,4.8-7-6.07-10.85-6.76-2.05,1.13-4.21,2.51-6.21,3.83l0-.06-.49.32-.08.08,0,0c-1.68,1.25-3.16,3.73-4,5-1.23,1.85-1.75,4-2.91,5.91-.62,1,.16,1.75,0,2.84a8.26,8.26,0,0,0-.29,1.32,1.58,1.58,0,0,1-.24.39.6.6,0,0,0,.16.93s-.51.91-.51.94c-2.09,1.27-3.95,1.9-4.3,3.89a.6.6,0,0,0,.26.64c1.63,1,3,.72,4.41.25-.15,2.87-.63,5.65-2.27,7.61a12.42,12.42,0,0,1-2.29,1.84l.06.22-.41.13a.3.3,0,0,0,0-.1c-1.58,1-3.45,2.3-3.82,3.89-1.09,4.66.31,8.79.55,13.42.15,2.84,1.68,2.39,2.47,4.42a.66.66,0,0,0,.94.39,21.29,21.29,0,0,0,5.11-4.81,1.34,1.34,0,0,0-.07-.18,3.37,3.37,0,0,0,.63-.36,1.47,1.47,0,0,0-.06-.14l0-.08c.5-.63,1.09-1.31,1.46-1.82,2.34-3.18,4-6.74,6.56-9.73,2.27-2.61,2.9-1.31,5,.09,1.9,1.27,5,2.91,6.43.85.42-.62-1.14-4.08-1.38-4.63-1.84-4.27.71-4.65,3.46-4.29l0,0h1.07l.08.07c1.53,1.82,4.25,5.68,5,5.56,1.59-.27,4.59-10.17,5.73-11,2.53-1.85,1.67,7.8,3.39,8.75,3.7,2,13.65-2.51,17-4.63,1-.61,2.38-1.69,3.5-2.5l-.16-.23h.18a1.74,1.74,0,0,0,.11.18l.26-.18h.22l-.07-.09h0c2.1-1.46,4.11-2.65,4.46-1.41a5.28,5.28,0,0,1-2.06,5.63l.16.26-.12.11a2.25,2.25,0,0,0-.16-.31c-1.38.91-3.35,1.72-4.32,2.31-2.26,1.4-9.05,2.5-11.25,4-4.8,3.31-10.34,1.59-15.88,2.35l-.24.09,0,.06h-.91v0l0,0a33.16,33.16,0,0,0-13.47,5c-4.47,3-9.12,5.44-12.93,8.5v0c-.05-.11-.09-.23-.14-.34a3.21,3.21,0,0,1,0,.51l0,0,0,0c-.07.23-.24.28-.67.28l.06.17v0A25.07,25.07,0,0,0,363.8,210a35.72,35.72,0,0,0-2.55,12.52,74.76,74.76,0,0,0,1.38,11.88c.64,3.5,3.35,5.37,3.75,5.87,1.31,1.69,1.69,2.18,2.57,1.5a110.78,110.78,0,0,1,13.38-19,.05.05,0,0,1,0,0c.23-.26.46-.51.68-.77h0A151.41,151.41,0,0,1,407.5,200.5l0,0,.58-.41,0,0c3.1-2.17,6.59-4.43,10-6.5,6.86-4.2,10.44-6.46,15.79-8.79a.05.05,0,0,1,0,0c.2-.09.41-.2.63-.32h0c.8-.33,2-.74,2.9-1.1a.76.76,0,0,1,0-.15,22.36,22.36,0,0,0-.18-6.52c-.16-1-2.67-3.33.48-3.23,1.39,2.56,3,4.78,4,7.89h0a177.31,177.31,0,0,1,22.62-6.54v0c1.68-.32,3.47-.6,4.89-.78l4.83-.58a76.51,76.51,0,0,1,22.25.71l0-.06,1,.2-.07-.09a58.42,58.42,0,0,1,16.1,6C514.47,178.31,512.48,174.73,512,173.3Zm-77.23-10.55a25.69,25.69,0,0,1-5.92,2.25c-2,.82-4.15,1.64-5.71,2.18L423,167c-.7,0-.9,0-1,.37l.1.14c-1.52.41-2.87.54-3.13,0a5.2,5.2,0,0,1,.25-4.36c.23-.13.5-.25.7-.39l-.22-.3c3-3.28,8.62-5.7,14.77-5.2C436.23,157.39,435,161,434.75,162.75Z" transform="translate(-337.96 -115.11)"/><path class="cls-4" d="M347.93,181.27q-.69,1.36-1.35,2.79C342.59,219.85,351,243,362,257.8c.12-.39.24-.78.38-1.17C351.39,241.57,343.24,217.93,347.93,181.27Z" transform="translate(-337.96 -115.11)"/><path class="cls-4" d="M369.94,197.56a110,110,0,0,1-5.15-17.06A79.89,79.89,0,0,1,363,160.4l-1,1.06a82,82,0,0,0,2,19.62,110.68,110.68,0,0,0,5.32,17.37c.36.91.74,1.82,1.12,2.72a116,116,0,0,0,12,21.63L383,222a115,115,0,0,1-11.9-21.55C370.73,199.52,370.33,198.55,369.94,197.56Z" transform="translate(-337.96 -115.11)"/><path class="cls-4" d="M398.17,186.9l.44-.06c-1.77-2.56-3.54-5.17-5.27-7.82-6.51-10-12.48-20.41-16.19-30.25l-.49.31-.32.36c3.54,9.31,9.07,19.12,15.15,28.55,2,3.06,4,6.08,6,9,3.29,4.76,6.59,9.34,9.71,13.61l.82-.58c-3-4.15-6.24-8.59-9.43-13.2Z" transform="translate(-337.96 -115.11)"/><path class="cls-4" d="M421.39,132.53c-.49.06-1,.14-1.45.21,19.83,13.67,32.83,26.3,43.05,42.33l1.05-.22C453.87,158.8,441,146.13,421.39,132.53Z" transform="translate(-337.96 -115.11)"/><path class="cls-4" d="M447.74,132.18c-1.08-.12-2.16-.21-3.25-.29,21.09,8.48,39.59,25,51.35,42.1.47.08.93.18,1.4.28C485.94,157.5,468.16,141.19,447.74,132.18Z" transform="translate(-337.96 -115.11)"/><path class="cls-4" d="M430.46,177.86q-1.32-2-2.67-4l-2.2-3.2-.93-1.33c-.51-.73-1-1.45-1.53-2.18-1.12-1.59-2.25-3.17-3.4-4.76l-.6-.81c-6-8.16-12.33-16.26-19.12-24l-1,.35c6.92,7.84,13.39,16.07,19.44,24.36l.73,1c1,1.39,2,2.78,3,4.17l1.28,1.83,1.43,2,2.13,3.1c.9,1.33,1.8,2.66,2.68,4l.65,1c1.2,1.79,2.35,3.55,3.5,5.32.31-.13.68-.36,1-.5-1.18-1.82-2.43-3.51-3.65-5.35Z" transform="translate(-337.96 -115.11)"/><path class="cls-6" d="M575.33,328.83c-2.11,9.2-10.87,17-24,23l-1,.46A141.1,141.1,0,0,1,521,361l-1,.19a237.43,237.43,0,0,1-32.4,3.78l-1,0q-6.52.32-13.24.31c-3.73,0-7.19-.07-10.81-.21s-7.52-.33-10.52-.61v0c-1,0-1-.05-1-.07h0a202.65,202.65,0,0,1-33.06-5.29l0,0-1-.27v0a107.2,107.2,0,0,1-23.53-9,59.53,59.53,0,0,1-6.88-4.35c-.35-.25-.68-.51-1-.77-8-6.21-12.65-13.73-12.74-22.41,0-.54,0-1.08,0-1.62-1.14,1.6,0,10,1.64,29.95A94.94,94.94,0,0,0,396.46,404c.58.68,1.17,1.36,1.77,2a92.4,92.4,0,0,0,29.71,22l1.14.54a94.89,94.89,0,0,0,24.17,7.15h0c.33.06.67.1,1,.15A103.11,103.11,0,0,0,470.33,437q6.19-.08,12.05-.64l1-.1a115.79,115.79,0,0,0,26.41-5.76l1.23-.44a91.62,91.62,0,0,0,24.5-13.3l1.48-1.15a86.94,86.94,0,0,0,17-18.19,104.84,104.84,0,0,0,16-37.6c.8-3.62,2-8,2.5-11.32C573.17,344.33,576.17,329,575.33,328.83Z" transform="translate(-337.96 -115.11)"/><path class="cls-4" d="M451.42,364.5c.6,13.36,1.12,26.34,1.58,38.46.74-2.62,1.64-5.57,2.56-8.15,2.22-6.14,4.25-12.15,5.12-18.64.51-3.71,1.3-7.35,1.61-11.05C458.64,365,454.93,364.78,451.42,364.5Z" transform="translate(-337.96 -115.11)"/><path class="cls-4" d="M393.3,349.87a37.42,37.42,0,0,0,1.22,4.23c1.59,4.6,4.59,7.74,7.63,11.4A20.43,20.43,0,0,0,413.57,373c3.06.85,4.26,3.36,5.68,5.8-.83-6.38-1.54-13.12-2.21-19.83A108.23,108.23,0,0,1,393.3,349.87Z" transform="translate(-337.96 -115.11)"/><path class="cls-4" d="M417.67,359.08c.73,7.35,1.52,14.13,2.46,21.09a57.58,57.58,0,0,1,4.77,9.36c2,5.27,2.93,10.56,5.68,15.51s7.12,9.1,10,14.24c5.22,9.34,7.6-1,9.51-6.5.81-2.32,1.59-5,2.25-7.32-.48-13.09-.84-26.5-1.5-41A206.07,206.07,0,0,1,417.67,359.08Z" transform="translate(-337.96 -115.11)"/><path class="cls-4" d="M470.68,385.14l-.06,0a1.65,1.65,0,0,0-2.24.46c-1.7,2.86-1.69,7.23-2.16,10.41-.28,1.88-4.16,13.38-.22,13.56,2.29.1,4.35-2.48,5.57-4.11,2.18-2.89,2.42-6.41,2.72-9.92.21-2.51.34-5,.35-7.5,0-1.33.52-1.95-.2-3.12C473.57,383.46,471.8,384.84,470.68,385.14Z" transform="translate(-337.96 -115.11)"/><path class="cls-4" d="M549.76,376.3c-1.37,5.43-.45,10.19,1.25,15.47a22,22,0,0,0,3,5.65,104.84,104.84,0,0,0,16-37.6c-4.43,1.45-8.54,2.21-12.52,5A22.06,22.06,0,0,0,549.76,376.3Z" transform="translate(-337.96 -115.11)"/><path class="cls-4" d="M487.89,382.92c1.11-.12,1.74-1.42,1.86-2.39a1.93,1.93,0,0,0-.33-1.48,1.23,1.23,0,0,0-.64-.4,1.17,1.17,0,0,0-1.57-.36c0,1.57-.09,2.86-.13,4.42A2.85,2.85,0,0,0,487.89,382.92Z" transform="translate(-337.96 -115.11)"/><path class="cls-4" d="M485.8,380.14a2.9,2.9,0,0,0,.74,2.24c0-1.05,0-2.54,0-3.59A4.36,4.36,0,0,0,485.8,380.14Z" transform="translate(-337.96 -115.11)"/><path class="cls-4" d="M385.41,344.75c.3,19.26,4,39.07,11,59.29.58.68,1.17,1.36,1.77,2-7.46-20.66-11.4-40.89-11.8-60.54C386.08,345.27,385.75,345,385.41,344.75Z" transform="translate(-337.96 -115.11)"/><path class="cls-4" d="M419.55,379.25c-.17-.27-.32-.53-.48-.8,2.29,17.56,5.21,34,8.87,49.64l1.14.53c-3.57-15.22-6.46-31.1-8.73-48.07Z" transform="translate(-337.96 -115.11)"/><path class="cls-4" d="M419.55,379.25l.8,1.3q-1.39-10.43-2.49-21.44l-1-.28q1,10.07,2.24,19.62C419.23,378.72,419.38,379,419.55,379.25Z" transform="translate(-337.96 -115.11)"/><path class="cls-4" d="M452.25,405.75c.38,10.37.71,20.34,1,30,.33.06.67.1,1,.15-.31-10.71-.68-21.77-1.12-33.31C452.84,403.66,452.55,404.71,452.25,405.75Z" transform="translate(-337.96 -115.11)"/><path class="cls-4" d="M453.13,402.62c-.45-12.12-1-24.77-1.58-38.14l-1-.08c.66,14.54,1.23,28.27,1.71,41.35C452.55,404.71,452.84,403.66,453.13,402.62Z" transform="translate(-337.96 -115.11)"/><path class="cls-4" d="M486.57,365q0,7-.11,13.9c0,1.05-.06,2.1-.08,3.14-.47,18.5-1.8,36.64-4,54.29l1-.09c2.16-17.38,3.48-35.23,4-53.42,0-1.56.08-3.12.11-4.69q.12-6.56.1-13.18Z" transform="translate(-337.96 -115.11)"/><path class="cls-4" d="M520,361.2c-.36,30.24-3.9,50.11-10.16,69.3l1.23-.44c6.13-18.87,9.59-38.53,9.93-69.05Z" transform="translate(-337.96 -115.11)"/><path class="cls-4" d="M550.26,352.25c-1.12,19.24-6,40.6-14.72,64.51l1.48-1.15c8.5-23.62,13.22-44.75,14.27-63.82Z" transform="translate(-337.96 -115.11)"/><path class="cls-7" d="M609.56,194.61c2.82-.58,4.94-1.28,7.8-1.63,12.83-1.54,9.28,8,1.49,13.27a13.1,13.1,0,0,1,1.32,2.87,5.6,5.6,0,0,1-1.5,4.71c-1.42,1.42-3.27,2.46-3.75,3.34-.84,1.5,1.75,4.83,1.23,5.57-.73.18-5.09-4-6.73-6.74a36.13,36.13,0,0,1-3.34-7.25c-1,.46-3.57,1.58-4.5,2.08-3.23,1.74-8.88,3.14-13.75,3.42-4,.23-7.58-.44-7.38-1,.47-.5,4-1.33,5-2.72s0-3.91.31-6c.48-4,2.34-7.42,9.15-5.36-.78-2-2.29-4.68-2.4-6.81-.32-5.88,4.28-7.21,8.33-5.41,3.19,1.41,5.52,3.93,7,5.41C608.5,193,609.23,194.33,609.56,194.61Z" transform="translate(-337.96 -115.11)"/><path class="cls-5" d="M610.67,193.53c-2.44-.7-3.35,3.33-3.83,5-1,3.46-2.09,7.53-2,11.17,0,.32.35.66.69.52,1.09-.44,1.62-2.13,2-3.18,0-.07.85-2.32,1.24-3.43.81-2.25,1.83-4.32,2.43-6.66C611.39,196.15,611.92,193.52,610.67,193.53Z" transform="translate(-337.96 -115.11)"/><path class="cls-5" d="M611.22,193.83c.91-1.24,1.92-2.39,2.74-3.71a8.58,8.58,0,0,1,3.53-3.43.31.31,0,0,0-.24-.57c-3.11,1-5.2,4.77-6.31,7.59-.07.17.18.24.28.12Z" transform="translate(-337.96 -115.11)"/><path class="cls-5" d="M609.7,193.71c.13-3.13-.23-7.17-2.61-9.48-.3-.28-.69.14-.44.45,1.93,2.43,2.07,6.09,2.75,9.07a.15.15,0,0,0,.3,0Z" transform="translate(-337.96 -115.11)"/><path class="cls-2" d="M526.69,271.37a1.5,1.5,0,0,1-1.37-2.12,1.53,1.53,0,0,1,2-.77,1.48,1.48,0,0,1,.76,2l0,.05A1.51,1.51,0,0,1,526.69,271.37Zm-2,7a1.5,1.5,0,0,1-1.37-2.12,1.53,1.53,0,0,1,2-.77,1.48,1.48,0,0,1,.76,2l0,.05A1.51,1.51,0,0,1,524.69,278.37Zm-2,8a1.5,1.5,0,0,1-1.37-2.12,1.53,1.53,0,0,1,2-.77,1.48,1.48,0,0,1,.76,2l0,.05A1.51,1.51,0,0,1,522.69,286.37Zm-1,7a1.5,1.5,0,0,1-1.37-2.12,1.53,1.53,0,0,1,2-.77,1.48,1.48,0,0,1,.76,2l0,.05A1.51,1.51,0,0,1,521.69,293.37Zm8.12-28.32a1.53,1.53,0,0,1-.71-.18,1.5,1.5,0,0,1-.62-2,1.53,1.53,0,0,1,2-.64,1.48,1.48,0,0,1,.63,2l0,0A1.5,1.5,0,0,1,529.81,265.05Zm3.55-6.09a1.5,1.5,0,0,1-1.26-2.31,1.52,1.52,0,0,1,2.07-.48,1.47,1.47,0,0,1,.49,2s0,.06,0,.06A1.48,1.48,0,0,1,533.36,259Zm9-11a1.5,1.5,0,0,1-1.26-2.31,1.52,1.52,0,0,1,2.07-.48,1.47,1.47,0,0,1,.49,2s0,.06,0,.06A1.48,1.48,0,0,1,542.36,248Zm-5,5.24a1.5,1.5,0,0,1-1.16-2.45,1.53,1.53,0,0,1,2.1-.26,1.49,1.49,0,0,1,.3,2.06.73.73,0,0,1-.08.09A1.46,1.46,0,0,1,537.41,253.2Zm9.77-10.13a1.5,1.5,0,0,1-.9-2.7,1.54,1.54,0,0,1,2.1.25,1.49,1.49,0,0,1-.19,2.07.44.44,0,0,1-.11.08A1.44,1.44,0,0,1,547.18,243.07Zm18.66-9.58a1.5,1.5,0,0,1-.34-3l.11,0a1.5,1.5,0,0,1,.52,3l-.26-1.48.25,1.48Zm-7,2a1.5,1.5,0,0,1-.34-3l.11,0a1.5,1.5,0,0,1,.52,3l-.26-1.48.25,1.48Zm-6,3a1.5,1.5,0,0,1-.34-3l.11,0a1.5,1.5,0,0,1,.52,3l-.26-1.48.25,1.48ZM579.92,233h-.09a1.51,1.51,0,0,1-1.45-1.58,1.53,1.53,0,0,1,1.54-1.48,1.55,1.55,0,0,1,1.48,1.55A1.51,1.51,0,0,1,579.92,233Zm-7.09-.15a1.5,1.5,0,0,1,0-3,1.52,1.52,0,0,1,1.52,1.48,1.48,1.48,0,0,1-1.43,1.52Zm14.08-.26a1.5,1.5,0,0,1-.22-3,1.52,1.52,0,0,1,1.73,1.26,1.48,1.48,0,0,1-1.24,1.7h-.27Zm7-2a1.5,1.5,0,0,1-.22-3,1.52,1.52,0,0,1,1.73,1.26,1.48,1.48,0,0,1-1.24,1.7h-.27Zm4.56-5.2a1.5,1.5,0,0,1-1.22-2.37,1.52,1.52,0,0,1,2.07-.4,1.48,1.48,0,0,1,.45,2l-.08.13A1.51,1.51,0,0,1,598.47,225.39Zm3-6.36A1.55,1.55,0,0,1,601,219a1.48,1.48,0,0,1-1-1.84l0-.14A1.5,1.5,0,0,1,602.9,218l-1.4-.53,1.4.53A1.52,1.52,0,0,1,601.48,219Z" transform="translate(-337.96 -115.11)"/><text class="cls-8" transform="matrix(0.29, -0.96, 0.96, 0.29, 232.31, 291.28)">©<tspan class="cls-9" x="6.77" y="0">O</tspan><tspan x="12.97" y="0">pen </tspan><tspan class="cls-10" x="28.09" y="0">D</tspan><tspan x="34.07" y="0">igital </tspan><tspan class="cls-11" x="51.97" y="0">E</tspan><tspan x="56.4" y="0">duc</tspan><tspan class="cls-12" x="68.88" y="0">a</tspan><tspan x="72.66" y="0">tion</tspan></text></svg>