<svg width="20" height="20" viewBox="0 0 20 20" fill="none" xmlns="http://www.w3.org/2000/svg">
<path d="M10.5085 17.7172L10.9954 16.5979C11.8505 14.6174 13.4176 13.029 15.3872 12.1463L16.8914 11.4779C17.0731 11.3939 17.2269 11.2597 17.3347 11.0911C17.4425 10.9226 17.4998 10.7267 17.4998 10.5266C17.4998 10.3266 17.4425 10.1307 17.3347 9.96218C17.2269 9.79363 17.0731 9.65942 16.8914 9.57541L15.4703 8.94257C13.4511 8.03472 11.8573 6.38765 11.0172 4.34067L10.5164 3.13432C10.4429 2.94715 10.3146 2.78646 10.1483 2.67319C9.98206 2.55993 9.78549 2.49935 9.58424 2.49935C9.383 2.49935 9.18643 2.55993 9.02015 2.67319C8.85387 2.78646 8.72559 2.94715 8.65205 3.13432L8.15131 4.34265C7.31028 6.38924 5.71574 8.0356 3.69618 8.94257L2.2771 9.57343C2.09486 9.6572 1.94047 9.79143 1.83225 9.9602C1.72402 10.129 1.6665 10.3252 1.6665 10.5257C1.6665 10.7261 1.72402 10.9223 1.83225 11.0911C1.94047 11.2599 2.09486 11.3941 2.2771 11.4779L3.7793 12.1483C5.74934 13.0301 7.31705 14.6178 8.17309 16.5979L8.65997 17.7172C8.73606 17.8995 8.86442 18.0552 9.02889 18.1647C9.19337 18.2742 9.3866 18.3327 9.58424 18.3327C9.78189 18.3327 9.97512 18.2742 10.1396 18.1647C10.3041 18.0552 10.4324 17.8995 10.5085 17.7172Z" fill="#C232AA"/>
<path d="M16.1254 6.47167L16.2791 6.1182C16.5492 5.49276 17.044 4.99118 17.666 4.71242L18.141 4.50134C18.1984 4.47481 18.247 4.43243 18.281 4.3792C18.3151 4.32597 18.3332 4.26412 18.3332 4.20095C18.3332 4.13778 18.3151 4.07593 18.281 4.0227C18.247 3.96947 18.1984 3.92709 18.141 3.90056L17.6923 3.70072C17.0546 3.41403 16.5513 2.8939 16.286 2.24748L16.1279 1.86653C16.1047 1.80743 16.0642 1.75668 16.0116 1.72091C15.9591 1.68515 15.8971 1.66602 15.8335 1.66602C15.77 1.66602 15.7079 1.68515 15.6554 1.72091C15.6029 1.75668 15.5624 1.80743 15.5391 1.86653L15.381 2.24811C15.1154 2.8944 14.6119 3.41431 13.9741 3.70072L13.526 3.89994C13.4684 3.92639 13.4197 3.96878 13.3855 4.02207C13.3513 4.07537 13.3332 4.13734 13.3332 4.20064C13.3332 4.26394 13.3513 4.32591 13.3855 4.3792C13.4197 4.4325 13.4684 4.47489 13.526 4.50134L14.0004 4.71305C14.6225 4.99153 15.1176 5.49289 15.3879 6.1182L15.5416 6.47167C15.5657 6.52923 15.6062 6.57839 15.6581 6.61298C15.7101 6.64756 15.7711 6.66602 15.8335 6.66602C15.8959 6.66602 15.9569 6.64756 16.0089 6.61298C16.0608 6.57839 16.1014 6.52923 16.1254 6.47167Z" fill="#C232AA"/>
</svg>
