<svg width="120" height="120" viewBox="0 0 120 120" fill="none" xmlns="http://www.w3.org/2000/svg">
<path d="M0 24C0 10.7452 10.7452 0 24 0H96C109.255 0 120 10.7452 120 24V96C120 109.255 109.255 120 96 120H24C10.7452 120 0 109.255 0 96V24Z" fill="url(#paint0_linear_3241_3)"/>
<path fill-rule="evenodd" clip-rule="evenodd" d="M51.8332 51.3333C51.3729 51.3333 50.9998 51.7064 50.9998 52.1667L50.9998 77.1667C50.9998 77.6269 51.3729 78 51.8332 78H71.8332C72.2934 78 72.6665 77.6269 72.6665 77.1667V63.8333C72.6665 62.9129 73.4127 62.1667 74.3332 62.1667C75.2536 62.1667 75.9998 62.9129 75.9998 63.8333V77.1667C75.9998 79.4679 74.1344 81.3333 71.8332 81.3333H51.8332C49.532 81.3333 47.6665 79.4679 47.6665 77.1667L47.6665 52.1667C47.6665 49.8655 49.532 48 51.8332 48H60.1665C61.087 48 61.8332 48.7462 61.8332 49.6667C61.8332 50.5871 61.087 51.3333 60.1665 51.3333H51.8332Z" fill="#C232AA"/>
<path fill-rule="evenodd" clip-rule="evenodd" d="M54.3332 58C54.3332 57.0795 55.0794 56.3333 55.9998 56.3333H60.9998C61.9203 56.3333 62.6665 57.0795 62.6665 58C62.6665 58.9205 61.9203 59.6667 60.9998 59.6667H55.9998C55.0794 59.6667 54.3332 58.9205 54.3332 58Z" fill="#C232AA"/>
<path fill-rule="evenodd" clip-rule="evenodd" d="M54.3332 64.6667C54.3332 63.7462 55.0794 63 55.9998 63H67.6665C68.587 63 69.3332 63.7462 69.3332 64.6667C69.3332 65.5871 68.587 66.3333 67.6665 66.3333H55.9998C55.0794 66.3333 54.3332 65.5871 54.3332 64.6667Z" fill="#C232AA"/>
<path fill-rule="evenodd" clip-rule="evenodd" d="M54.3332 71.3333C54.3332 70.4129 55.0794 69.6667 55.9998 69.6667H67.6665C68.587 69.6667 69.3332 70.4129 69.3332 71.3333C69.3332 72.2538 68.587 73 67.6665 73H55.9998C55.0794 73 54.3332 72.2538 54.3332 71.3333Z" fill="#C232AA"/>
<path d="M71.9739 60.6849L72.4864 59.5066C73.3866 57.4218 75.036 55.7499 77.1093 54.8207L78.6927 54.1171C78.8839 54.0287 79.0459 53.8874 79.1594 53.71C79.2729 53.5325 79.3332 53.3264 79.3332 53.1158C79.3332 52.9052 79.2729 52.6991 79.1594 52.5216C79.0459 52.3442 78.8839 52.2029 78.6927 52.1145L77.1969 51.4484C75.0714 50.4927 73.3937 48.759 72.5093 46.6042L71.9822 45.3344C71.9048 45.1374 71.7698 44.9682 71.5948 44.849C71.4197 44.7298 71.2128 44.666 71.001 44.666C70.7891 44.666 70.5822 44.7298 70.4072 44.849C70.2321 44.9682 70.0971 45.1374 70.0197 45.3344L69.4926 46.6063C68.6073 48.7606 66.9289 50.4936 64.803 51.4484L63.3092 52.1124C63.1174 52.2006 62.9549 52.3419 62.841 52.5195C62.7271 52.6972 62.6665 52.9038 62.6665 53.1148C62.6665 53.3258 62.7271 53.5323 62.841 53.71C62.9549 53.8876 63.1174 54.0289 63.3092 54.1171L64.8905 54.8228C66.9642 55.7511 68.6144 57.4223 69.5155 59.5066L70.028 60.6849C70.1081 60.8767 70.2433 61.0406 70.4164 61.1559C70.5895 61.2712 70.7929 61.3327 71.001 61.3327C71.209 61.3327 71.4124 61.2712 71.5855 61.1559C71.7587 61.0406 71.8938 60.8767 71.9739 60.6849Z" fill="#C232AA"/>
<defs>
<linearGradient id="paint0_linear_3241_3" x1="100.456" y1="9.7826" x2="12.8547" y2="26.0953" gradientUnits="userSpaceOnUse">
<stop stop-color="#FCF8E2"/>
<stop offset="1" stop-color="#FEE1FA"/>
</linearGradient>
</defs>
</svg>
