<svg width="120" height="121" viewBox="0 0 120 121" fill="none" xmlns="http://www.w3.org/2000/svg">
<path d="M0 24.5C0 11.2452 10.7452 0.5 24 0.5H96C109.255 0.5 120 11.2452 120 24.5V96.5C120 109.755 109.255 120.5 96 120.5H24C10.7452 120.5 0 109.755 0 96.5V24.5Z" fill="white"/>
<g clip-path="url(#clip0_3241_3)">
<path fill-rule="evenodd" clip-rule="evenodd" d="M59.8213 62.3221C60.4722 61.6713 61.5275 61.6713 62.1783 62.3221L68.845 68.9888C69.4959 69.6397 69.4959 70.695 68.845 71.3458C68.1941 71.9967 67.1389 71.9967 66.488 71.3458L60.9998 65.8577L55.5117 71.3458C54.8608 71.9967 53.8055 71.9967 53.1547 71.3458C52.5038 70.695 52.5038 69.6397 53.1547 68.9888L59.8213 62.3221Z" fill="#B0B0B0"/>
<path fill-rule="evenodd" clip-rule="evenodd" d="M61.0002 61.834C61.9206 61.834 62.6668 62.5802 62.6668 63.5007V78.5007C62.6668 79.4211 61.9206 80.1673 61.0002 80.1673C60.0797 80.1673 59.3335 79.4211 59.3335 78.5007V63.5007C59.3335 62.5802 60.0797 61.834 61.0002 61.834Z" fill="#B0B0B0"/>
<path fill-rule="evenodd" clip-rule="evenodd" d="M55.4389 46.8481C57.7047 46.7646 59.96 47.1958 62.0351 48.1094C64.1103 49.023 65.9513 50.3951 67.4199 52.1226C68.6056 53.5175 69.5236 55.1148 70.1319 56.8338H71.0001C73.2218 56.8353 75.3809 57.5766 77.1345 58.9407C78.8882 60.3048 80.1376 62.2141 80.6856 64.3672C81.2336 66.5203 81.049 68.7945 80.1609 70.831C79.2729 72.8676 77.7319 74.5503 75.7812 75.6138C74.973 76.0544 73.9607 75.7564 73.5201 74.9482C73.0795 74.1401 73.3775 73.1277 74.1857 72.6871C75.4861 71.9782 76.5134 70.8563 77.1055 69.4986C77.6975 68.141 77.8206 66.6248 77.4553 65.1894C77.0899 63.754 76.257 62.4811 75.0879 61.5717C73.9188 60.6623 72.4801 60.1681 70.999 60.1671H68.9001C68.1403 60.1671 67.4767 59.6533 67.2865 58.9176C66.8451 57.2103 66.0223 55.6252 64.8802 54.2816C63.738 52.938 62.3061 51.8708 60.692 51.1602C59.078 50.4496 57.324 50.1142 55.5617 50.1791C53.7994 50.2441 52.0747 50.7077 50.5174 51.5351C48.96 52.3625 47.6105 53.5322 46.5703 54.9562C45.5301 56.3802 44.8262 58.0215 44.5117 59.7568C44.1971 61.492 44.28 63.2759 44.7541 64.9745C45.2282 66.673 46.0812 68.242 47.249 69.5635C47.8585 70.2532 47.7935 71.3065 47.1038 71.916C46.414 72.5255 45.3607 72.4605 44.7512 71.7708C43.2498 70.0718 42.1531 68.0545 41.5435 65.8706C40.9339 63.6868 40.8273 61.3931 41.2318 59.1621C41.6363 56.9312 42.5412 54.8209 43.8786 52.99C45.216 51.1591 46.9511 49.6552 48.9534 48.5914C50.9557 47.5276 53.1731 46.9315 55.4389 46.8481Z" fill="#B0B0B0"/>
<path fill-rule="evenodd" clip-rule="evenodd" d="M59.8213 62.3221C60.4722 61.6713 61.5275 61.6713 62.1783 62.3221L68.845 68.9888C69.4959 69.6397 69.4959 70.695 68.845 71.3458C68.1941 71.9967 67.1389 71.9967 66.488 71.3458L60.9998 65.8577L55.5117 71.3458C54.8608 71.9967 53.8055 71.9967 53.1547 71.3458C52.5038 70.695 52.5038 69.6397 53.1547 68.9888L59.8213 62.3221Z" fill="#B0B0B0"/>
</g>
<defs>
<clipPath id="clip0_3241_3">
<rect width="40" height="40" fill="white" transform="translate(41 43.5)"/>
</clipPath>
</defs>
</svg>
