<svg width="120" height="121" viewBox="0 0 120 121" fill="none" xmlns="http://www.w3.org/2000/svg">
<path d="M0 24.5C0 11.2452 10.7452 0.5 24 0.5H96C109.255 0.5 120 11.2452 120 24.5V96.5C120 109.755 109.255 120.5 96 120.5H24C10.7452 120.5 0 109.755 0 96.5V24.5Z" fill="#F6ECF9"/>
<g clip-path="url(#clip0_3241_3)">
<path d="M44.3335 73.4074L44.3335 60.1667C44.3335 59.179 44.6962 58.3457 45.4215 57.6667C46.1468 56.9877 47.0032 56.679 47.9909 56.7407C50.4292 57.1111 52.7517 57.8287 54.9585 58.8935C57.1653 59.9583 59.1792 61.3395 61.0002 63.037C62.8212 61.3395 64.835 59.9583 67.0418 58.8935C69.2486 57.8287 71.5712 57.1111 74.0094 56.7407C74.9971 56.679 75.8536 56.9877 76.5789 57.6667C77.3042 58.3457 77.6668 59.179 77.6668 60.1667V73.4074C77.6668 74.3951 77.3428 75.2361 76.6946 75.9306C76.0465 76.625 75.2286 77.0031 74.2409 77.0648C72.2656 77.3735 70.352 77.8827 68.5002 78.5926C66.6483 79.3025 64.9199 80.2438 63.315 81.4167C62.9755 81.6945 62.6128 81.9028 62.227 82.0417C61.8412 82.1806 61.4323 82.25 61.0002 82.25C60.5681 82.25 60.1591 82.1806 59.7733 82.0417C59.3875 81.9028 59.0249 81.6945 58.6853 81.4167C57.0804 80.2438 55.352 79.3025 53.5002 78.5926C51.6483 77.8827 49.7347 77.3735 47.7594 77.0648C46.7718 77.0031 45.9539 76.625 45.3057 75.9306C44.6576 75.2361 44.3335 74.3951 44.3335 73.4074ZM61.0002 78.5C62.9446 77.0494 65.0125 75.892 67.2039 75.0278C69.3952 74.1636 71.6483 73.5926 73.9631 73.3148V60.537C71.71 60.9383 69.4955 61.7485 67.3196 62.9676C65.1437 64.1867 63.0372 65.8148 61.0002 67.8519C58.9631 65.8148 56.8566 64.1867 54.6807 62.9676C52.5048 61.7485 50.2903 60.9383 48.0372 60.537L48.0372 73.3148C50.352 73.5926 52.6051 74.1636 54.7965 75.0278C56.9878 75.892 59.0557 77.0494 61.0002 78.5ZM61.0002 58.3148C58.9631 58.3148 57.2193 57.5895 55.7687 56.1389C54.3181 54.6883 53.5928 52.9444 53.5928 50.9074C53.5928 48.8704 54.3181 47.1265 55.7687 45.6759C57.2193 44.2253 58.9631 43.5 61.0002 43.5C63.0372 43.5 64.781 44.2253 66.2316 45.6759C67.6823 47.1265 68.4076 48.8704 68.4076 50.9074C68.4076 52.9444 67.6823 54.6883 66.2316 56.1389C64.781 57.5895 63.0372 58.3148 61.0002 58.3148ZM61.0002 54.6111C62.0187 54.6111 62.8906 54.2485 63.6159 53.5231C64.3412 52.7978 64.7039 51.9259 64.7039 50.9074C64.7039 49.8889 64.3412 49.017 63.6159 48.2917C62.8906 47.5664 62.0187 47.2037 61.0002 47.2037C59.9816 47.2037 59.1097 47.5664 58.3844 48.2917C57.6591 49.017 57.2965 49.8889 57.2965 50.9074C57.2965 51.9259 57.6591 52.7978 58.3844 53.5231C59.1097 54.2485 59.9816 54.6111 61.0002 54.6111Z" fill="#823AA1"/>
</g>
<defs>
<clipPath id="clip0_3241_3">
<rect width="40" height="40" fill="white" transform="translate(41 43.5)"/>
</clipPath>
</defs>
</svg>
