<svg width="120" height="120" viewBox="0 0 120 120" fill="none" xmlns="http://www.w3.org/2000/svg">
<path d="M0 24C0 10.7452 10.7452 0 24 0H96C109.255 0 120 10.7452 120 24V96C120 109.255 109.255 120 96 120H24C10.7452 120 0 109.255 0 96V24Z" fill="#FFEFE3"/>
<path fill-rule="evenodd" clip-rule="evenodd" d="M59.3335 76.3327C59.3335 75.4122 60.0797 74.666 61.0002 74.666H76.0002C76.9206 74.666 77.6668 75.4122 77.6668 76.3327C77.6668 77.2532 76.9206 77.9993 76.0002 77.9993H61.0002C60.0797 77.9993 59.3335 77.2532 59.3335 76.3327Z" fill="#FF8D2E"/>
<path fill-rule="evenodd" clip-rule="evenodd" d="M71.0002 49.4642C70.5045 49.4642 70.0292 49.6611 69.6787 50.0116L49.1718 70.5185L48.2908 74.0424L51.8148 73.1615L72.3217 52.6545C72.4952 52.481 72.6329 52.275 72.7268 52.0482C72.8207 51.8215 72.8691 51.5785 72.8691 51.3331C72.8691 51.0876 72.8207 50.8446 72.7268 50.6179C72.6329 50.3911 72.4952 50.1851 72.3217 50.0116C72.1481 49.838 71.9421 49.7004 71.7154 49.6065C71.4886 49.5125 71.2456 49.4642 71.0002 49.4642ZM67.3217 47.6545C68.2973 46.6789 69.6205 46.1309 71.0002 46.1309C71.6834 46.1309 72.3598 46.2654 72.991 46.5269C73.6222 46.7883 74.1956 47.1715 74.6787 47.6545C75.1618 48.1376 75.545 48.7111 75.8064 49.3423C76.0678 49.9734 76.2024 50.6499 76.2024 51.3331C76.2024 52.0162 76.0678 52.6927 75.8064 53.3239C75.545 53.955 75.1618 54.5285 74.6787 55.0116L53.8454 75.8449C53.6318 76.0585 53.3641 76.21 53.0711 76.2833L46.4044 77.95C45.8365 78.092 45.2357 77.9255 44.8217 77.5116C44.4077 77.0976 44.2413 76.4968 44.3833 75.9288L46.05 69.2622C46.1232 68.9691 46.2748 68.7015 46.4884 68.4879L67.3217 47.6545Z" fill="#FF8D2E"/>
</svg>
